<?xml version="1.0" encoding="utf-8"?>
<!-- Generator: Adobe Illustrator 22.0.0, SVG Export Plug-In . SVG Version: 6.00 Build 0)  -->
<svg version="1.1" id="Calque_1" xmlns="http://www.w3.org/2000/svg" xmlns:xlink="http://www.w3.org/1999/xlink" x="0px" y="0px"
	 viewBox="0 0 432 432" style="enable-background:new 0 0 432 432;" xml:space="preserve">
<style type="text/css">
	.st0{fill:#066938;}
	.st1{fill:#9F1E29;}
	.st2{fill:#571419;}
	.st3{fill:none;}
	.st4{fill:#C68448;}
	.st5{fill:#8C633A;}
	.st6{fill:#D79A5D;}
	.st7{fill:#A5C0DF;}
	.st8{fill:#36502D;}
	.st9{fill:#C8261D;}
	.st10{fill:#808181;}
	.st11{fill:#519C37;}
	.st12{fill:#FCEE69;}
	.st13{fill:#EC8C37;}
	.st14{fill:#5877B1;}
	.st15{fill:#7B1523;}
	.st16{fill:#4F0D1C;}
	.st17{fill:#BF333D;}
	.st18{fill:#E7373D;}
	.st19{fill:#972021;}
	.st20{fill:#F2F2F2;}
	.st21{fill:#F3D4AA;}
	.st22{fill:#A67D52;}
	.st23{fill:#B59063;}
	.st24{fill:#020203;}
	.st25{fill:#FFFFFF;}
	.st26{fill:#E7E6E6;}
	.st27{fill:#9A9999;}
	.st28{fill:#B4B4B4;}
	.st29{fill:#C9913E;}
	.st30{fill:#D6A14D;}
	.st31{fill:#E2A1BC;}
	.st32{fill:#C1292E;}
	.st33{fill:#82171C;}
	.st34{fill:#CDCCCC;}
	.st35{fill:#D06C5D;}
	.st36{fill:#79986F;}
	.st37{fill:#DAA405;}
	.st38{fill:#EDCBA9;}
	.st39{fill:#405045;}
	.st40{fill:#8B2F2F;}
	.st41{fill:#1D2E1C;}
	.st42{fill:#D4BB78;}
	.st43{fill:#3C1014;}
	.st44{fill:#731633;}
	.st45{fill:#3F0D26;}
	.st46{fill:#E3EBF8;}
	.st47{fill:#D2DFEF;}
	.st48{fill:#B88E5C;}
	.st49{fill:#A81735;}
	.st50{fill:#4AA8A8;}
	.st51{fill:#94B947;}
	.st52{fill:#A8C4D3;}
	.st53{fill:#9F1A18;}
	.st54{fill:#4F6325;}
	.st55{fill:#BAC463;}
	.st56{fill:#8C694B;}
	.st57{fill:#8A9A66;}
	.st58{fill:#DDDDC3;}
	.st59{fill:#3F668A;}
	.st60{fill:#1B1B1B;}
	.st61{fill:#FFF0BA;}
	.st62{fill:#C69C6C;}
	.st63{fill:#603914;}
	.st64{fill:#114923;}
	.st65{fill:#961F27;}
	.st66{fill:#BB870E;}
	.st67{fill:#C51720;}
	.st68{fill:#449494;}
	.st69{fill:#417675;}
	.st70{fill:#ABCFAF;}
	.st71{fill:#66B2B0;}
	.st72{fill:#F9B03D;}
	.st73{fill:#754D24;}
	.st74{fill:#F6F6F6;}
	.st75{fill:#BA181A;}
	.st76{fill:#AD191C;}
	.st77{fill:#161515;}
	.st78{fill:#1E1E1C;}
	.st79{fill:#0E472B;}
	.st80{fill:#D3C29D;}
	.st81{fill:#CC2717;}
	.st82{fill:#A81916;}
	.st83{fill:#805129;}
	.st84{fill:#F39323;}
	.st85{fill:#B56B20;}
	.st86{fill:#E52629;}
	.st87{fill:#7B9EC7;}
	.st88{fill:#48515A;}
	.st89{fill:#DED3C6;}
	.st90{fill:#3B444E;}
	.st91{fill:#6189B1;}
	.st92{fill:#97B8D7;}
	.st93{fill:#715038;}
	.st94{fill:#A3282E;}
	.st95{fill:#110506;}
	.st96{fill:#F3E4D4;}
	.st97{fill:#F4DCC9;}
	.st98{fill:#676767;}
	.st99{fill:#E0EDF3;}
	.st100{fill:#90443F;}
	.st101{fill:#989389;}
	.st102{fill:#F0DABE;}
	.st103{fill:#4F382A;}
	.st104{fill:#009245;}
	.st105{fill:#064928;}
</style>
<g>
	<g>
		<g>
			<g>
				<path class="st1" d="M77.1,214.9c-1.3,11.5,2.1,22.7,9.5,31.6c1.2,1.4,3.2-0.6,2-2c-6.9-8.4-9.9-18.8-8.6-29.6
					C80.2,213,77.3,213,77.1,214.9L77.1,214.9z"/>
			</g>
			<g>
				<path class="st1" d="M88.2,216.2c-1.6,11.1,5.4,19.5,12.6,27.1c1.3,1.4,3.3-0.7,2-2C96.5,234.5,89.5,227,91,217
					C91.2,215.2,88.4,214.4,88.2,216.2L88.2,216.2z"/>
			</g>
			<g>
				<path class="st1" d="M138.2,336.6c4,4.2,10.6,6.1,16.1,7.3c5.8,1.2,11.7,0.8,16.5-2.9c1.5-1.1,0-3.6-1.5-2.5
					c-4.7,3.6-10.3,3.7-15.9,2.2c-4.6-1.2-9.8-2.7-13.2-6.2C138.9,333.2,136.9,335.3,138.2,336.6L138.2,336.6z"/>
			</g>
			<g>
				<path class="st1" d="M138.2,349.3c4,4.2,10.6,6.1,16.1,7.3c5.8,1.2,11.7,0.8,16.5-2.9c1.5-1.1,0-3.6-1.5-2.5
					c-4.7,3.6-10.3,3.7-15.9,2.2c-4.6-1.2-9.8-2.7-13.2-6.2C138.9,346,136.9,348,138.2,349.3L138.2,349.3z"/>
			</g>
			<g>
				<path class="st1" d="M336.3,243.5c2.1,15,4,32.3-7.7,44c-1.3,1.3,0.7,3.4,2,2c12.5-12.5,10.7-30.7,8.4-46.8
					C338.8,240.9,336,241.7,336.3,243.5L336.3,243.5z"/>
			</g>
			<g>
				<path class="st1" d="M351.5,240c1.2,8.9,2.2,18.1-2.7,26.2c-1,1.6,1.5,3.1,2.5,1.5c5.2-8.5,4.3-18.2,3.1-27.7
					C354.1,238.2,351.2,238.2,351.5,240L351.5,240z"/>
			</g>
			<g>
				<path class="st1" d="M300.2,107.6c9.4,2.8,17,9.1,21.6,17.8c0.9,1.7,3.4,0.2,2.5-1.5c-4.9-9.4-13.2-16.1-23.3-19.1
					C299.2,104.2,298.4,107,300.2,107.6L300.2,107.6z"/>
			</g>
			<g>
				<path class="st1" d="M313.6,102.3c8.2,3,15.4,7.8,21.4,14.1c1.3,1.4,3.3-0.7,2-2c-6.4-6.7-14-11.7-22.7-14.9
					C312.7,98.9,311.9,101.7,313.6,102.3L313.6,102.3z"/>
			</g>
		</g>
		<g>
			<path class="st55" d="M354.1,134.4c0.5-2.3,0.9-4.5,1.4-6.7c0.1-0.3,0.1-0.7,0.2-1c0.3-1.1,0.9-1.9,2-2.3c2.1-0.7,4.3-1,6.5-0.7
				c1.6,0.2,2.5,1.2,2.8,2.7c0.1,0.6,0.2,1.2,0.2,1.8c0.1,3.4-0.4,6.8-1.2,10.1c-0.3,1-0.9,1.7-1.8,2.2c-0.9,0.4-1.9,0.9-2.8,1.2
				c-1.1,0.4-2,0.1-2.7-0.8c-0.5-0.7-0.5-1.6,0.1-2.5c0.9-1.2,2.1-1.9,3.4-2.4c0.3-0.1,0.7-0.2,1-0.4c0-0.3,0.1-0.6,0.1-0.8
				c0.1-2.1,0.2-4.1,0.4-6.2c0.1-2,0-2.2-2-2.1c-0.8,0-1.6,0.2-2.4,0.3c-0.9,0.1-1.3,0.6-1.5,1.4c-0.4,1.7-0.8,3.5-1.2,5.2
				c-0.3,1.3-0.6,2.5-1.4,3.6c-1,1.3-2.3,2.1-3.8,2.5c-0.8,0.2-1.7,0.1-2.3-0.6c-0.8-0.8-0.7-2.1,0.2-3
				C350.6,134.6,352.1,133.7,354.1,134.4z"/>
			<path class="st55" d="M145.8,78.7c0.1,1.9,0.2,3.6,0.4,5.4c0.3,2.7,0.8,5.3,1.2,8c0.1,0.3,0.1,0.7,0,1.1
				c-0.6,2.4-1.8,4.5-3.9,5.9c-2,1.3-4.2,0.3-4.3-2.1c-0.1-2.6,1.3-4.4,3.4-5.7c0.4-0.2,0.8-0.4,1.4-0.7c0-0.3-0.1-0.7-0.1-1.1
				c-0.8-4.4-1.2-8.8-1.1-13.2c0-0.7,0.1-1.4,0.3-2.1c0.2-0.6,0.6-1.1,1.3-1.2c0.7-0.1,1.2,0.3,1.6,0.9c0,0,0,0.1,0.1,0.1
				c1.2,2.8,3.4,4.7,5.8,6.5c1.7,1.3,2.3,3.2,1.6,5.1c-0.1,0.4-0.4,0.9-0.8,1.1c-0.6,0.5-1.4,0.1-1.4-0.7c0-0.4,0.1-0.9,0.1-1.3
				c0.1-1-0.3-1.8-1.2-2.5C148.8,81.1,147.4,79.9,145.8,78.7z"/>
			<path class="st53" d="M295.4,71.4c0,2.8,0,5.6,0,8.4c0,1,0.1,2,0.2,3c0.1,0.9,0,1.7-0.5,2.4c-0.6,0.9-1.3,1.9-2.1,2.7
				c-0.5,0.5-1.2,0.9-1.8,1.1c-1.3,0.4-2.6-0.2-3-1.6c-0.2-0.7-0.3-1.4-0.1-2.1c0.5-2.2,1.8-3.7,4.1-4.4c0-0.3,0-0.6,0-0.9
				c-0.4-4.2-0.2-8.4,0.1-12.6c0-0.5,0.1-0.9,0.3-1.4c0.2-0.7,0.7-1.1,1.4-1.1c0.6,0,1.1,0.3,1.4,1c0.2,0.5,0.3,1,0.5,1.5
				c0.5,1.5,1.5,2.6,3,3.2c1.2,0.5,2.2,1.2,2.9,2.2c1,1.3,1.1,2.8,0.5,4.3c-0.1,0.3-0.3,0.5-0.4,0.7c-0.3,0.4-0.6,0.8-1.2,0.5
				c-0.5-0.3-0.3-0.7-0.2-1.1c0.5-1.8-0.1-3-1.9-4C297.5,72.5,296.5,72,295.4,71.4z"/>
			<path class="st53" d="M74.3,165.2c-0.8-1.8-1.6-3.5-2.3-5.3c-1,0.4-3.1,2.3-3.4,3.3c-0.1,0.4-0.1,0.9,0,1.3
				c0.3,1.9,0.7,3.8,1.1,5.7c0.1,0.3,0.2,0.6,0.3,0.9c1,1.9-0.2,4.9-2.3,5.5c-1.6,0.5-3.1-0.9-2.8-2.6c0.2-1.2,0.8-2.2,1.7-3
				c0.3-0.2,0.6-0.4,0.9-0.7c-0.1-0.7-0.3-1.3-0.5-2c-0.3-1.2-0.6-2.4-0.9-3.5c-0.4-1.2-0.1-2.3,0.6-3.4c1.2-1.7,2.8-3,4.5-4.2
				c1-0.7,2.1-0.5,3,0.5c0.3,0.4,0.6,0.8,0.8,1.3c0.8,1.7,1.5,3.4,2.3,5.1c0.2,0.5,0.5,0.9,0.7,1.3c0.2,0.4,0.4,0.8,0.4,1.2
				c-0.1,1.6-0.5,3-1.6,4.2c-0.1,0.1-0.3,0.3-0.4,0.4c-0.8,0.6-1.7,0.8-2.6,0.3c-0.8-0.5-1.3-1.5-1.1-2.6c0.1-1,0.5-1.9,1.2-2.7
				C73.8,165.9,74.1,165.6,74.3,165.2z"/>
			<path class="st54" d="M127.4,258.4c-1-4.3-2-8.6-3-12.9c-0.1-0.4-0.2-0.8-0.2-1.2c0-0.9,0.9-1.4,1.6-0.9c0.4,0.3,0.8,0.8,1,1.3
				c0.4,1.2,0.8,2.5,1.1,3.7c0.9,3.4,1.8,6.7,2.6,10.1c0,0.1,0.1,0.2,0.1,0.3c0.2,1-0.4,4.4-0.9,5.3c-0.6,1.2-1.7,2-2.9,2.5
				c-0.7,0.3-1.5,0.3-2.1-0.2c-0.6-0.5-0.8-1.2-0.6-1.9c0.3-1.1,0.5-2.3,1-3.4C125.7,260.2,126.7,259.4,127.4,258.4z"/>
		</g>
	</g>
	<g>
		<g>
			<g>
				<path class="st24" d="M132.3,298.4c-10.6,0-19.6-1.6-20.1-6.5c-0.5-4.9-4.3-18.2-9.5-17.9c-5.2,0.3-2.2,23.1-1.6,29.6
					c0.5,6.5,28.3,4.6,31.3,4.3C131.5,303.3,132.3,298.4,132.3,298.4z"/>
				<path class="st24" d="M293.9,340.2c6.7,7.9,13.6,13.5,17.6,10.7c4.1-2.8,16.6-8.6,19.7-4.6c3,4-16.2,16.6-21.5,20.4
					c-5.3,3.8-21.3-18-23-20.4C290.7,344,293.9,340.2,293.9,340.2z"/>
			</g>
			<g>
				<path class="st24" d="M138.6,197.6c-2.4-5.7-0.5-20.7-6.3-20.9c-5.7-0.3-1.9,9.8-5,10.5s-10.2-16.2-17.8-10.5
					c-7.6,5.7-6.8,11.8,0,18.1c6.8,6.3,18.9,14,20.9,14.6C133.7,205.5,138.6,197.6,138.6,197.6z"/>
				<path class="st24" d="M328.9,182.1c2.4-5.7,0.5-20.7,6.3-20.9c5.7-0.3,1.9,9.8,5,10.5c3.1,0.7,10.2-16.2,17.8-10.5
					c7.6,5.7,6.8,11.8,0,18.1c-6.8,6.3-18.9,14-20.9,14.6C333.8,190,328.9,182.1,328.9,182.1z"/>
			</g>
			<g>
				<path class="st1" d="M334.3,192.5c-16.3,11.7-32.3,39.4-41.6,69.6c0.3,11.6-1.7,22.6-2.8,30.7c-0.1,0.5-0.2,1-0.2,1.5l0.9,12
					l0,0.6c2.8,4.6,1.6,12.7,1.3,16.8c-0.3,4.4,4.1,10.6,6.8,16.3c2.7,5.7,0,14.7-11.6,13.6c-11.6-1.1-29.1-7.6-35.9-13
					c-6.3-5-24.8-19.7-32.2-22.6h0c-0.6-0.2-1.1-0.4-1.5-0.5c-0.6-0.1-1.3-0.1-2.1-0.1h0c-8.2,0.5-28.1,7.2-36.7,7.4
					c-9.5,0.3-37.5-13-43.8-13.9c-6.2-0.8-9.8-13.3-5.7-14.7c4.1-1.4,17.9-9.2,29.6-10.9c0-0.1,0-0.2,0-0.3v0l4.4-19l0-0.1
					c0.1-0.2,0.1-0.4,0.2-0.7c3.3-11.8,7.5-25.5,10-31.8c1.5-3.8-29.6-13.6-37.3-18.5c-7.7-4.9-3.5-18.7,5.2-12.9
					c34.8,25.2,54.3,7.4,74.2,4.5c1.9,3,25.5,11.4,47.8,7.3c2.2,2.7,23.1,6,32.9,2.4c9.8-3.5,25-24.5,30.2-29.6
					C331.5,181.6,338.6,190.8,334.3,192.5z"/>
				<path class="st24" d="M290.5,306.3c-21.9,9.3-44.1,14.5-71.6,10.8h0c-0.5-0.1-1-0.1-1.5-0.2c-0.7-0.1-1.4-0.2-2.1-0.3h0
					c-24.5-4.2-47.3-19.4-56.5-31.5v0l4.4-19l0-0.1c8.8,15.6,21.2,33.3,52.4,39.3c29.9,5.7,61.8-6.5,74.3-12.5
					c-0.1,0.5-0.2,1-0.2,1.5L290.5,306.3z"/>
				<path class="st26" d="M143.5,198.4c2.7,3.3-4.9,20.1-11.1,18.8c-6.3-1.4-8.7-8.1-6.8-9.3c1.9-1.3,6.3-3.1,6.8-5.7
					C132.9,199.5,137.8,191.4,143.5,198.4z"/>
				<path class="st26" d="M324,182.9c-2.7,3.3,4.9,20.1,11.1,18.8c6.3-1.4,8.7-8.1,6.8-9.3c-1.9-1.3-6.3-3.1-6.8-5.7
					C334.6,184,329.7,175.8,324,182.9z"/>
				<circle class="st6" cx="245" cy="299" r="3.8"/>
			</g>
		</g>
		<g>
			<path class="st96" d="M195.4,176.2c-0.5-10.8,7.2-31.8,40.5-32.5c33.3-0.7,47.4,3.8,50.8,32.5c3.4,28.7-19,50-48.9,43.6
				S196.2,192.7,195.4,176.2z"/>
			<g>
				<path class="st20" d="M167.1,184.2c12.1-7.2,21.2-25.7,39.7-19.2s28.7,16.3,35.6,16.1c6.8-0.3,17.9,6,25.4,3.1
					s23.5-8.2,28.7,10.6s19,37,17.4,44.9c-1.6,7.9-9.2,23.4-38.9,32.6s-30.4,10.9-33.8,15.8c-3.4,4.9-8.3,14.1-20.8,11.4
					c-12.5-2.7-21.2-22-22.3-30.7c-1.1-8.7-16-8.7-23.4-19s-7.1-30.4-7.6-34.5C166.6,211.2,151.4,193.5,167.1,184.2z"/>
				<g>
					<g>
						<g>
							<path class="st24" d="M217.4,164.9l-1.2-1.5c5.4-4.4,16.1-7.9,23-1.8l-1.3,1.4C231.8,157.7,222.2,160.9,217.4,164.9z"/>
						</g>
						<g>
							<path class="st24" d="M277.8,168.2c-4.3-4.6-13.4-9-20.1-4.5l-1.1-1.6c7.6-5.2,17.8-0.3,22.6,4.8L277.8,168.2z"/>
						</g>
					</g>
					<path class="st24" d="M230,195.2c8.5,3.9,14.9,4.3,23.5,2.4c8.6-1.9,0.4,12.4-11,11.8C231.1,208.9,223.5,192.2,230,195.2z"/>
					<circle class="st21" cx="246" cy="175.3" r="8.9"/>
				</g>
			</g>
		</g>
		<g>
			<path class="st1" d="M185.9,148.4c-8.3-14.4-54.1-6.8-57.9-13.6s10.9-4.1,22.8-10.1c12-6,18.8-27.4,54.1-27.7
				c35.3-0.3,67.4-1.4,75.3,47c-25.3-3-64.8-3.8-76.4,1.1C192.1,150.1,188.1,152.2,185.9,148.4z"/>
			<path class="st26" d="M184.8,172.1c-13.2-6.4-20.1-19.6,8.4-32.3c28.5-12.8,26.6-3.3,48.1-6.9c10.4-1.7,19.8-1.8,27.7,2.8
				s16.3,6,25.8,13.6s6,36.7-4.9,37.5c-10.9,0.8-5.7-20.4-9.8-26.9c-4.1-6.5-25.5-2.4-28.8-7s-20.7-7.3-33.2-1.6
				C205.7,156.9,195.4,177.2,184.8,172.1z"/>
			<path class="st26" d="M102.2,119.1c4.4-5.3,14.9-1.6,20.4-1.6s9.8,1.6,11.4,7.3s6.8,19-9.2,23.1c-16,4.1-25.3-2.4-24.7-12
				C100.5,126.4,100.1,121.6,102.2,119.1z"/>
		</g>
	</g>
</g>
</svg>
